{
  "accessors": [
    {
      "bufferView": 2,
      "componentType": 5126,
      "count": 65532,
      "max": [
        0.8712900280952454,
        2.344719886779785,
        1.4597400426864624
      ],
      "min": [
        -0.7693799734115601,
        -1.8853000402450562,
        0.015673844143748283
      ],
      "type": "VEC3"
    },
    {
      "bufferView": 2,
      "byteOffset": 786384,
      "componentType": 5126,
      "count": 65532,
      "max": [
        0.9999906420707703,
        0.9999679327011108,
        1.0
      ],
      "min": [
        -0.99998939037323,
        -0.9999672174453735,
        -1.0
      ],
      "type": "VEC3"
    },
    {
      "bufferView": 1,
      "componentType": 5126,
      "count": 65532,
      "max": [
        0.9978460073471069,
        0.9978659749031067
      ],
      "min": [
        0.002116000046953559,
        0.0032550001051276922
      ],
      "type": "VEC2"
    },
    {
      "bufferView": 0,
      "componentType": 5125,
      "count": 210795,
      "type": "SCALAR"
    },
    {
      "bufferView": 2,
      "byteOffset": 1572768,
      "componentType": 5126,
      "count": 65532,
      "max": [
        0.8804000020027161,
        2.344719886779785,
        1.4608099460601807
      ],
      "min": [
        -0.7693799734115601,
        -1.8853000402450562,
        0.017610013484954834
      ],
      "type": "VEC3"
    },
    {
      "bufferView": 2,
      "byteOffset": 2359152,
      "componentType": 5126,
      "count": 65532,
      "max": [
        0.9999942779541016,
        0.9999969005584717,
        1.0
      ],
      "min": [
        -1.0,
        -0.9999943375587463,
        -1.0
      ],
      "type": "VEC3"
    },
    {
      "bufferView": 1,
      "byteOffset": 524256,
      "componentType": 5126,
      "count": 65532,
      "max": [
        0.997793972492218,
        0.9979140162467957
      ],
      "min": [
        0.0020580000709742308,
        0.00228899996727705
      ],
      "type": "VEC2"
    },
    {
      "bufferView": 0,
      "byteOffset": 843180,
      "componentType": 5125,
      "count": 293403,
      "type": "SCALAR"
    },
    {
      "bufferView": 2,
      "byteOffset": 3145536,
      "componentType": 5126,
      "count": 9137,
      "max": [
        0.8640599846839905,
        2.2921600341796875,
        1.4559299945831299
      ],
      "min": [
        -0.709119975566864,
        -1.8552700281143188,
        0.01672411523759365
      ],
      "type": "VEC3"
    },
    {
      "bufferView": 2,
      "byteOffset": 3255180,
      "componentType": 5126,
      "count": 9137,
      "max": [
        0.9998395442962646,
        1.0,
        1.0
      ],
      "min": [
        -0.999950110912323,
        -0.9999644756317139,
        -1.0
      ],
      "type": "VEC3"
    },
    {
      "bufferView": 1,
      "byteOffset": 1048512,
      "componentType": 5126,
      "count": 9137,
      "max": [
        0.9937899708747864,
        0.8806920051574707
      ],
      "min": [
        0.05694200098514557,
        0.002294000005349517
      ],
      "type": "VEC2"
    },
    {
      "bufferView": 0,
      "byteOffset": 2016792,
      "componentType": 5125,
      "count": 35526,
      "type": "SCALAR"
    }
  ],
  "asset": {
    "extras": {
      "author": "alban (https://sketchfab.com/alban)",
      "license": "CC-BY-4.0 (http://creativecommons.org/licenses/by/4.0/)",
      "source": "https://sketchfab.com/3d-models/old-mg-car-e0b9583f801440c7bfd9823b2a0ecbde",
      "title": "Old MG car"
    },
    "generator": "Sketchfab-14.87.0",
    "version": "2.0"
  },
  "bufferViews": [
    {
      "buffer": 0,
      "byteLength": 2158896,
      "name": "floatBufferViews",
      "target": 34963
    },
    {
      "buffer": 0,
      "byteLength": 1121608,
      "byteOffset": 2158896,
      "byteStride": 8,
      "name": "floatBufferViews",
      "target": 34962
    },
    {
      "buffer": 0,
      "byteLength": 3364824,
      "byteOffset": 3280504,
      "byteStride": 12,
      "name": "floatBufferViews",
      "target": 34962
    }
  ],
  "buffers": [
    {
      "byteLength": 6645328,
      "uri": "scene.bin"
    }
  ],
  "images": [
    {
      "uri": "textures/main_baseColor.jpeg"
    }
  ],
  "materials": [
    {
      "doubleSided": true,
      "name": "main",
      "pbrMetallicRoughness": {
        "baseColorTexture": {
          "index": 0
        },
        "metallicFactor": 0.0
      }
    }
  ],
  "meshes": [
    {
      "name": "Object_0",
      "primitives": [
        {
          "attributes": {
            "NORMAL": 1,
            "POSITION": 0,
            "TEXCOORD_0": 2
          },
          "indices": 3,
          "material": 0,
          "mode": 4
        }
      ]
    },
    {
      "name": "Object_1",
      "primitives": [
        {
          "attributes": {
            "NORMAL": 5,
            "POSITION": 4,
            "TEXCOORD_0": 6
          },
          "indices": 7,
          "material": 0,
          "mode": 4
        }
      ]
    },
    {
      "name": "Object_2",
      "primitives": [
        {
          "attributes": {
            "NORMAL": 9,
            "POSITION": 8,
            "TEXCOORD_0": 10
          },
          "indices": 11,
          "material": 0,
          "mode": 4
        }
      ]
    }
  ],
  "nodes": [
    {
      "children": [
        1
      ],
      "matrix": [
        0.9998956322669983,
        0.014447815716266632,
        3.1538494241238073e-18,
        0.0,
        -0.0005084609729237854,
        0.035189256072044595,
        -0.9993805289268494,
        0.0,
        -0.014438866637647152,
        0.9992762207984924,
        0.03519292920827888,
        0.0,
        0.0,
        0.0,
        0.0,
        1.0
      ],
      "name": "Sketchfab_model"
    },
    {
      "children": [
        2,
        3,
        4
      ],
      "name": "mgcar.obj.cleaner.materialmerger.gles"
    },
    {
      "mesh": 0,
      "name": "Object_2"
    },
    {
      "mesh": 1,
      "name": "Object_3"
    },
    {
      "mesh": 2,
      "name": "Object_4"
    }
  ],
  "samplers": [
    {
      "magFilter": 9729,
      "minFilter": 9987,
      "wrapS": 10497,
      "wrapT": 10497
    }
  ],
  "scene": 0,
  "scenes": [
    {
      "name": "Sketchfab_Scene",
      "nodes": [
        0
      ]
    }
  ],
  "textures": [
    {
      "sampler": 0,
      "source": 0
    }
  ]
}
